<svg width="20" height="20" viewBox="0 0 20 20" fill="none" xmlns="http://www.w3.org/2000/svg">
<path d="M8.69021 16.6033L11.659 15.3431C11.77 16.0767 11.3773 16.8205 10.6629 17.1237C9.94846 17.427 9.14071 17.1928 8.69021 16.6033ZM13.2175 1.74458C14.9555 2.6942 16.2604 3.91347 17.1189 5.40049C17.9774 6.8875 18.381 8.62715 18.3343 10.6072C18.3261 10.9523 18.0398 11.2254 17.6947 11.2173C17.3496 11.2091 17.0765 10.9228 17.0846 10.5777C17.126 8.81831 16.775 7.30494 16.0364 6.02549C15.2976 4.74603 14.1625 3.68535 12.6181 2.84154C12.3152 2.67604 12.2038 2.29631 12.3693 1.9934C12.5348 1.69048 12.9145 1.57908 13.2175 1.74458ZM5.59258 5.4292C7.97737 4.36743 10.7627 5.3714 11.9255 7.71714L12.0074 7.89165L13.0802 10.3016L14.4955 11.5263C14.5727 11.5932 14.6396 11.6711 14.7172 11.797L14.7661 11.8922C14.999 12.4183 14.7612 13.0336 14.2351 13.2664L5.62961 17.0748C5.49684 17.1336 5.35325 17.164 5.20805 17.164C4.63275 17.164 4.16638 16.6976 4.16638 16.1226L4.16548 14.1701L3.13016 11.844C2.03558 9.38556 3.13781 6.52214 5.59258 5.4292ZM13.0195 4.74511C13.8253 5.18451 14.4711 5.82398 14.9497 6.65287C15.4282 7.48177 15.6591 8.36081 15.6367 9.2784C15.6283 9.62348 15.3418 9.8964 14.9967 9.88798C14.6516 9.87948 14.3787 9.59298 14.3871 9.2479C14.4038 8.56323 14.2324 7.91043 13.8671 7.27787C13.502 6.64532 13.0224 6.17043 12.421 5.84257C12.118 5.67732 12.0063 5.29769 12.1715 4.99464C12.3368 4.69158 12.7165 4.57987 13.0195 4.74511Z" fill="#AEAEB2"/>
</svg>
