<svg width="20" height="20" viewBox="0 0 20 20" fill="none" xmlns="http://www.w3.org/2000/svg">
<path d="M6.43344 14.1777L6.43993 14.1828C7.45771 14.9753 8.70891 15.409 9.9988 15.4167L10.0012 15.4167C11.2911 15.409 12.5423 14.9753 13.5601 14.1828L13.5665 14.1776C13.7228 14.0455 13.8282 13.863 13.8645 13.6615C13.9005 13.4624 13.8667 13.2571 13.7691 13.08C13.7257 12.9906 13.6633 12.9116 13.5863 12.8486C13.5073 12.7841 13.4149 12.738 13.3158 12.7138C13.2168 12.6896 13.1136 12.6878 13.0137 12.7085C12.9139 12.7293 12.8199 12.7721 12.7387 12.8338L12.736 12.8359C11.9563 13.4501 10.9926 13.7841 10 13.7841C9.00744 13.7841 8.04375 13.4501 7.26404 12.8359L7.26126 12.8338C7.18007 12.7721 7.08612 12.7293 6.98628 12.7085C6.88643 12.6878 6.78321 12.6896 6.68415 12.7138C6.5851 12.738 6.4927 12.7841 6.41373 12.8486C6.33666 12.9116 6.27428 12.9906 6.23087 13.08C6.13327 13.2571 6.09954 13.4624 6.13548 13.6615C6.17184 13.863 6.27713 14.0456 6.43344 14.1777Z" fill="#AEAEB2"/>
<path d="M5.44318 8.74899C5.59627 8.90208 5.8039 8.98808 6.02041 8.98808C6.23691 8.98808 6.44455 8.90208 6.59764 8.74899C6.75073 8.5959 6.83673 8.38826 6.83673 8.17176V6.64115C6.83673 6.42464 6.75073 6.21701 6.59764 6.06392C6.44455 5.91082 6.23691 5.82482 6.02041 5.82482C5.8039 5.82482 5.59627 5.91082 5.44318 6.06392C5.29009 6.21701 5.20408 6.42464 5.20408 6.64115V8.17176C5.20408 8.38826 5.29009 8.5959 5.44318 8.74899Z" fill="#AEAEB2"/>
<path d="M13.4024 8.74899C13.5555 8.90208 13.7631 8.98808 13.9796 8.98808C14.1961 8.98808 14.4037 8.90208 14.5568 8.74899C14.7099 8.5959 14.7959 8.38826 14.7959 8.17176V6.64115C14.7959 6.42464 14.7099 6.21701 14.5568 6.06392C14.4037 5.91082 14.1961 5.82482 13.9796 5.82482C13.7631 5.82482 13.5555 5.91082 13.4024 6.06392C13.2493 6.21701 13.1633 6.42464 13.1633 6.64115V8.17176C13.1633 8.38826 13.2493 8.5959 13.4024 8.74899Z" fill="#AEAEB2"/>
<path d="M8.5044 11.8102C8.65749 11.9633 8.86513 12.0493 9.08163 12.0493C9.62289 12.0493 10.142 11.8343 10.5247 11.4516C10.9074 11.0688 11.1224 10.5498 11.1224 10.0085V6.64115C11.1224 6.42464 11.0364 6.21701 10.8834 6.06392C10.7303 5.91082 10.5226 5.82482 10.3061 5.82482C10.0896 5.82482 9.88198 5.91082 9.72889 6.06392C9.5758 6.21701 9.4898 6.42464 9.4898 6.64115V10.0085C9.4898 10.1167 9.44679 10.2206 9.37025 10.2971C9.2937 10.3737 9.18988 10.4167 9.08163 10.4167C8.86513 10.4167 8.65749 10.5027 8.5044 10.6558C8.35131 10.8088 8.26531 11.0165 8.26531 11.233C8.26531 11.4495 8.35131 11.6571 8.5044 11.8102Z" fill="#AEAEB2"/>
<path d="M0 13.0612C0 15.3851 0.541988 17.1316 1.70518 18.2948C2.86838 19.458 4.61495 20 6.93878 20C7.15528 20 7.36292 19.914 7.51601 19.7609C7.6691 19.6078 7.7551 19.4002 7.7551 19.1837C7.7551 18.9672 7.6691 18.7595 7.51601 18.6064C7.36292 18.4534 7.15528 18.3673 6.93878 18.3673C4.96717 18.3673 3.65793 17.9867 2.83563 17.1644C2.01334 16.3421 1.63265 15.0328 1.63265 13.0612C1.63265 12.8447 1.54665 12.6371 1.39356 12.484C1.24047 12.3309 1.03283 12.2449 0.816326 12.2449C0.599824 12.2449 0.392188 12.3309 0.239097 12.484C0.0860055 12.6371 0 12.8447 0 13.0612Z" fill="#AEAEB2"/>
<path d="M18.6064 7.51601C18.7595 7.6691 18.9672 7.7551 19.1837 7.7551C19.4002 7.7551 19.6078 7.6691 19.7609 7.51601C19.914 7.36292 20 7.15528 20 6.93878C20 4.61495 19.458 2.86838 18.2948 1.70518C17.1316 0.541988 15.3851 0 13.0612 0C12.8447 0 12.6371 0.0860055 12.484 0.239097C12.3309 0.392188 12.2449 0.599824 12.2449 0.816326C12.2449 1.03283 12.3309 1.24047 12.484 1.39356C12.6371 1.54665 12.8447 1.63265 13.0612 1.63265C15.0328 1.63265 16.3421 2.01334 17.1644 2.83563C17.9867 3.65793 18.3673 4.96717 18.3673 6.93878C18.3673 7.15528 18.4534 7.36292 18.6064 7.51601Z" fill="#AEAEB2"/>
<path d="M0.239097 7.51601C0.392187 7.6691 0.599823 7.7551 0.816326 7.7551C1.03283 7.7551 1.24047 7.6691 1.39356 7.51601C1.54665 7.36292 1.63265 7.15528 1.63265 6.93878C1.63265 4.96717 2.01334 3.65793 2.83563 2.83563C3.65793 2.01334 4.96717 1.63265 6.93878 1.63265C7.15528 1.63265 7.36292 1.54665 7.51601 1.39356C7.6691 1.24047 7.7551 1.03283 7.7551 0.816326C7.7551 0.599823 7.6691 0.392187 7.51601 0.239097C7.36292 0.0860056 7.15528 0 6.93878 0C4.61495 0 2.86838 0.541988 1.70518 1.70518C0.541988 2.86838 0 4.61495 0 6.93878C0 7.15528 0.0860056 7.36292 0.239097 7.51601Z" fill="#AEAEB2"/>
<path d="M12.484 19.7609C12.6371 19.914 12.8447 20 13.0612 20C15.3851 20 17.1316 19.458 18.2948 18.2948C19.458 17.1316 20 15.3851 20 13.0612C20 12.8447 19.914 12.6371 19.7609 12.484C19.6078 12.3309 19.4002 12.2449 19.1837 12.2449C18.9672 12.2449 18.7595 12.3309 18.6064 12.484C18.4534 12.6371 18.3673 12.8447 18.3673 13.0612C18.3673 15.0328 17.9867 16.3421 17.1644 17.1644C16.3421 17.9867 15.0328 18.3673 13.0612 18.3673C12.8447 18.3673 12.6371 18.4534 12.484 18.6064C12.3309 18.7595 12.2449 18.9672 12.2449 19.1837C12.2449 19.4002 12.3309 19.6078 12.484 19.7609Z" fill="#AEAEB2"/>
</svg>
