<svg width="20" height="20" viewBox="0 0 20 20" fill="none" xmlns="http://www.w3.org/2000/svg">
<path d="M10.0003 1.66667C14.6027 1.66667 18.3337 5.39763 18.3337 10C18.3337 14.6023 14.6027 18.3333 10.0003 18.3333C8.63333 18.3333 7.31296 18.0033 6.13014 17.3819L2.55481 18.3128C2.17624 18.4114 1.78941 18.1844 1.69081 17.8058C1.66032 17.6888 1.66031 17.5659 1.69078 17.4488L2.62108 13.8752C1.99799 12.6912 1.66699 11.369 1.66699 10C1.66699 5.39763 5.39795 1.66667 10.0003 1.66667ZM10.0003 12.9167C9.54008 12.9167 9.16699 13.2898 9.16699 13.75C9.16699 14.2103 9.54008 14.5833 10.0003 14.5833C10.4606 14.5833 10.8337 14.2103 10.8337 13.75C10.8337 13.2898 10.4606 12.9167 10.0003 12.9167ZM10.0003 5.625C8.73466 5.625 7.70866 6.65102 7.70866 7.91667C7.70866 8.26184 7.98848 8.54167 8.33366 8.54167C8.65008 8.54167 8.91158 8.30654 8.95299 8.00148L8.96408 7.81016C9.01741 7.28489 9.46099 6.875 10.0003 6.875C10.5757 6.875 11.042 7.34137 11.042 7.91667C11.042 8.36567 10.9295 8.58775 10.5046 9.02684L10.2512 9.2845C9.62324 9.93834 9.37533 10.4077 9.37533 11.25C9.37533 11.5952 9.65516 11.875 10.0003 11.875C10.3455 11.875 10.6253 11.5952 10.6253 11.25C10.6253 10.801 10.7378 10.5789 11.1627 10.1398L11.4161 9.88217C12.0441 9.22834 12.292 8.759 12.292 7.91667C12.292 6.65102 11.266 5.625 10.0003 5.625Z" fill="#214389"/>
</svg>
