<svg width="20" height="20" viewBox="0 0 20 20" fill="none" xmlns="http://www.w3.org/2000/svg">
<path d="M10.0003 1.66666C14.6028 1.66666 18.3337 5.39833 18.3337 10C18.3337 14.6017 14.6028 18.3333 10.0003 18.3333C5.39783 18.3333 1.66699 14.6017 1.66699 10C1.66699 5.39833 5.39783 1.66666 10.0003 1.66666ZM10.0003 12.9167C9.54008 12.9167 9.16699 13.2897 9.16699 13.75C9.16699 14.2102 9.54008 14.5833 10.0003 14.5833C10.4606 14.5833 10.8337 14.2102 10.8337 13.75C10.8337 13.2897 10.4606 12.9167 10.0003 12.9167ZM10.0003 5.625C8.73466 5.625 7.70866 6.65101 7.70866 7.91666C7.70866 8.26184 7.98848 8.54166 8.33366 8.54166C8.65008 8.54166 8.91158 8.30654 8.95299 8.00147L8.95866 7.91666C8.95866 7.34136 9.42499 6.875 10.0003 6.875C10.5757 6.875 11.042 7.34136 11.042 7.91666C11.042 8.36566 10.9295 8.58775 10.5046 9.02683L10.3917 9.14141C9.65999 9.87316 9.37533 10.3476 9.37533 11.25C9.37533 11.5952 9.65516 11.875 10.0003 11.875C10.3455 11.875 10.6253 11.5952 10.6253 11.25C10.6253 10.801 10.7378 10.5789 11.1627 10.1398L11.2756 10.0252C12.0073 9.2935 12.292 8.81908 12.292 7.91666C12.292 6.65101 11.266 5.625 10.0003 5.625Z" fill="#AEAEB2"/>
</svg>
