<svg width="20" height="20" viewBox="0 0 20 20" fill="none" xmlns="http://www.w3.org/2000/svg">
<path d="M14.8913 11.7628C14.8913 7.56283 12.9348 5.70513 12.9348 5.70513C11.9754 8.01541 9.9184 8.38369 8.07085 8.71447C6.15054 9.05827 4.45652 9.36156 4.45652 11.7628H3.80435V12.4359C3.80435 13.0697 4.03914 13.3942 4.23381 13.57C4.33966 13.6656 4.44618 13.7274 4.52445 13.7644C4.56306 13.7827 4.59303 13.794 4.61002 13.8L4.61816 13.8028L4.62232 13.8041L4.96202 13.8918L5.07466 14.2405L5.07605 14.2447C5.07757 14.2492 5.08035 14.2573 5.08444 14.2688C5.0926 14.2918 5.10594 14.3282 5.12474 14.3761C5.16239 14.4721 5.22165 14.6135 5.30479 14.7851C5.47181 15.1299 5.73111 15.588 6.09884 16.0435C6.83028 16.9493 7.96593 17.8205 9.67391 17.8205H13.3411C12.4143 18.5925 11.2013 19.1667 9.67391 19.1667C7.46885 19.1667 5.9958 18.0186 5.09681 16.9053C4.64933 16.3511 4.33798 15.7996 4.13815 15.3872C4.06089 15.2277 3.9997 15.0878 3.95329 14.9748C3.79072 14.8953 3.5831 14.7711 3.37489 14.5831C2.91738 14.1699 2.5 13.4848 2.5 12.4359V9.07052C2.5 4.35898 6.41304 1.66667 9.67391 1.66667C12.2826 1.66667 12.9348 3.01283 12.9348 3.01283C15.5435 3.01283 16.8478 6.37821 16.8478 9.07052V10.5966C17.2378 10.8293 17.5 11.2643 17.5 11.7628V12.4359C17.5 12.9504 17.2207 13.3973 16.8099 13.6239C16.5697 15.238 15.2182 16.4744 13.587 16.4744H10.3261C10.2758 16.4744 10.2268 16.4685 10.1797 16.4573C10.1214 16.4685 10.0614 16.4744 10 16.4744H9.34783C8.80783 16.4744 8.36957 16.0221 8.36957 15.4647C8.36957 14.9074 8.80783 14.4551 9.34783 14.4551H10C10.4257 14.4551 10.7881 14.7362 10.9225 15.1282H13.587C14.4388 15.1282 15.1635 14.5663 15.4321 13.7821H14.8913V11.7628Z" fill="#AEAEB2"/>
</svg>
