<svg width="20" height="20" viewBox="0 0 20 20" fill="none" xmlns="http://www.w3.org/2000/svg">
<path d="M5.41634 10C7.94765 10 9.99967 12.052 9.99967 14.5833C9.99967 17.1147 7.94765 19.1667 5.41634 19.1667C2.88503 19.1667 0.833008 17.1147 0.833008 14.5833C0.833008 12.052 2.88503 10 5.41634 10ZM13.957 1.66667C14.9926 1.66667 15.832 2.50614 15.832 3.54167V16.4583C15.832 17.4938 14.9926 18.3333 13.957 18.3333L9.32434 18.334C10.2588 17.3607 10.833 16.0391 10.833 14.5833C10.833 11.5918 8.40792 9.16667 5.41634 9.16667C4.67812 9.16667 3.97438 9.31434 3.33301 9.58176V3.54167C3.33301 2.50614 4.17247 1.66667 5.20801 1.66667H13.957ZM5.41634 16.5667C5.12892 16.5667 4.89592 16.7997 4.89592 17.0871C4.89592 17.3745 5.12892 17.6075 5.41634 17.6075C5.70377 17.6075 5.93677 17.3745 5.93677 17.0871C5.93677 16.7997 5.70377 16.5667 5.41634 16.5667ZM5.41637 11.6693C4.54309 11.6693 3.8628 12.3504 3.87189 13.2978C3.8741 13.5279 4.06243 13.7127 4.29254 13.7105C4.52265 13.7083 4.7074 13.5199 4.70519 13.2898C4.70056 12.8073 5.0049 12.5026 5.41637 12.5026C5.81002 12.5026 6.12755 12.8292 6.12755 13.2938C6.12755 13.4808 6.06481 13.6198 5.86261 13.8583L5.78009 13.9527L5.55895 14.1944C5.15536 14.6458 4.99971 14.9379 4.99971 15.4172C4.99971 15.6473 5.18626 15.8338 5.41637 15.8338C5.6465 15.8338 5.83304 15.6473 5.83304 15.4172C5.83304 15.2237 5.89672 15.0818 6.10283 14.8386L6.18696 14.7423L6.40841 14.5003C6.80647 14.055 6.96088 13.7655 6.96088 13.2938C6.96088 12.3741 6.27558 11.6693 5.41637 11.6693ZM17.2913 12.5016C17.6078 12.5016 17.8693 12.7368 17.9107 13.0418L17.9163 13.1266V14.375C17.9163 14.6914 17.6812 14.9529 17.3762 14.9943L17.2913 15H16.6663V12.5016H17.2913ZM17.2913 9.16825C17.6078 9.16825 17.8693 9.40342 17.9107 9.7085L17.9163 9.79325V11.0417C17.9163 11.3581 17.6812 11.6196 17.3762 11.661L17.2913 11.6667H16.6663V9.16825H17.2913ZM17.2913 5.83495C17.6078 5.83495 17.8693 6.07008 17.9107 6.37515L17.9163 6.45995V7.70834C17.9163 8.02476 17.6812 8.28625 17.3762 8.32763L17.2913 8.33334H16.6663V5.83495H17.2913ZM12.2894 4.58087H6.87668C6.56027 4.58087 6.29877 4.816 6.25738 5.12106L6.25168 5.20587V6.45915C6.25168 6.77556 6.48681 7.03705 6.79187 7.07844L6.87668 7.08415H12.2894C12.6058 7.08415 12.8673 6.84902 12.9088 6.54395L12.9144 6.45915V5.20587C12.9144 4.8607 12.6346 4.58087 12.2894 4.58087Z" fill="#AEAEB2"/>
</svg>
