<svg width="20" height="20" viewBox="0 0 20 20" fill="none" xmlns="http://www.w3.org/2000/svg">
<path d="M9.99967 1.66666C11.8406 1.66666 13.333 3.15904 13.333 4.99999V6.66666H15.4163C16.1067 6.66666 16.6663 7.2263 16.6663 7.91666V17.0833C16.6663 17.7737 16.1067 18.3333 15.4163 18.3333H4.58301C3.89265 18.3333 3.33301 17.7737 3.33301 17.0833V7.91666C3.33301 7.2263 3.89265 6.66666 4.58301 6.66666H6.66634V4.99999C6.66634 3.15904 8.15872 1.66666 9.99967 1.66666ZM9.99976 11.25C9.30942 11.25 8.74976 11.8097 8.74976 12.5C8.74976 13.1903 9.30942 13.75 9.99976 13.75C10.6902 13.75 11.2498 13.1903 11.2498 12.5C11.2498 11.8097 10.6902 11.25 9.99976 11.25ZM9.99967 3.33332C9.07917 3.33332 8.33301 4.07951 8.33301 4.99999V6.66666H11.6663V4.99999C11.6663 4.07951 10.9202 3.33332 9.99967 3.33332Z" fill="#AEAEB2"/>
</svg>
