<svg width="20" height="20" viewBox="0 0 20 20" fill="none" xmlns="http://www.w3.org/2000/svg">
<path fill-rule="evenodd" clip-rule="evenodd" d="M19.1663 10C19.1663 5.39763 15.4354 1.66667 10.833 1.66667H9.16634C4.56397 1.66667 0.833009 5.39763 0.833009 10C0.833009 11.8531 1.43789 13.565 2.46099 14.9489C2.40839 15.8165 2.2842 16.4218 1.991 16.9356C1.705 17.4367 1.31009 17.878 0.833008 18.2355V18.3333H2.83301C3.86425 18.3333 4.81737 18.0347 5.58978 17.5289C6.67353 18.0447 7.88623 18.3333 9.16634 18.3333H10.833C15.4354 18.3333 19.1663 14.6024 19.1663 10ZM4.8458 9.70889C4.8458 8.86203 5.26337 8.34686 5.95684 8.34686C6.64658 8.34686 7.06788 8.8585 7.06788 9.70889V10.3123C7.06788 11.1556 6.65777 11.6496 5.95684 11.6496C5.25592 11.6496 4.8458 11.1556 4.8458 10.3123V9.70889ZM3.74967 10.3158C3.74967 11.6778 4.57363 12.5 5.95311 12.5C7.33259 12.5 8.16401 11.6778 8.16401 10.3158V9.71595C8.16401 8.3398 7.33259 7.5 5.96057 7.5C4.58482 7.5 3.74967 8.3398 3.74967 9.71595V10.3158ZM10.6987 8.4386H11.7464C12.0111 8.4386 12.1975 8.26217 12.1975 8.01517C12.1975 7.76817 12.0111 7.59174 11.7464 7.59174H8.58105C8.31634 7.59174 8.12246 7.76817 8.12246 8.01517C8.12246 8.25865 8.31634 8.4386 8.58105 8.4386H9.62125V11.8896C9.62125 12.2248 9.82631 12.433 10.1581 12.433C10.4899 12.433 10.6987 12.2248 10.6987 11.8896V8.4386ZM13.5168 8.39626V10.0124H14.132C14.8702 10.0124 15.1759 9.80064 15.1759 9.2043C15.1759 8.69266 14.8739 8.39626 14.337 8.39626H13.5168ZM13.5131 10.7922V11.8754C13.5131 12.2248 13.3155 12.433 12.9725 12.433C12.6295 12.433 12.4356 12.2283 12.4356 11.8754V8.31863C12.4356 7.79287 12.6481 7.59174 13.1887 7.59174H14.4825C15.5562 7.59174 16.2497 8.22336 16.2497 9.19019C16.2497 10.2029 15.5487 10.7922 14.434 10.7922H13.5131Z" fill="#214389"/>
</svg>
