<svg width="20" height="20" viewBox="0 0 20 20" fill="none" xmlns="http://www.w3.org/2000/svg">
<path d="M14.7957 11.6666C15.8308 11.6666 16.6698 12.5057 16.6698 13.5407V14.3061C16.6698 14.7838 16.5205 15.2497 16.2427 15.6384C14.9544 17.4412 12.8508 18.3342 10.0007 18.3342C7.14982 18.3342 5.04735 17.4407 3.76221 15.6372C3.48558 15.2489 3.33691 14.784 3.33691 14.3073V13.5407C3.33691 12.5057 4.17596 11.6666 5.21097 11.6666H14.7957ZM10.0007 1.67051C12.3018 1.67051 14.1673 3.536 14.1673 5.83718C14.1673 8.13837 12.3018 10.0038 10.0007 10.0038C7.69944 10.0038 5.83396 8.13837 5.83396 5.83718C5.83396 3.536 7.69944 1.67051 10.0007 1.67051Z" fill="#214389"/>
</svg>
