<svg width="20" height="20" viewBox="0 0 20 20" fill="none" xmlns="http://www.w3.org/2000/svg">
<path d="M10.0107 1.87503C10.6223 1.88208 11.2315 1.95275 11.8286 2.0859C12.0892 2.14401 12.2841 2.36129 12.3137 2.62666L12.4555 3.89904C12.5197 4.48325 13.0129 4.92573 13.601 4.92635C13.7591 4.9266 13.9154 4.89368 14.0615 4.82906L15.2287 4.31633C15.4714 4.20969 15.755 4.26783 15.9363 4.46138C16.7798 5.36223 17.4079 6.44266 17.7736 7.62135C17.8524 7.87551 17.7617 8.15172 17.5474 8.30961L16.5129 9.07215C16.2178 9.28899 16.0435 9.63341 16.0435 9.99957C16.0435 10.3658 16.2178 10.7102 16.5135 10.9274L17.549 11.6902C17.7633 11.8482 17.8541 12.1244 17.7753 12.3786C17.4098 13.5571 16.7819 14.6374 15.9389 15.5384C15.7578 15.732 15.4744 15.7902 15.2318 15.6839L14.0598 15.1705C13.7245 15.0237 13.3394 15.0452 13.0226 15.2283C12.7058 15.4115 12.4948 15.7343 12.4546 16.0982L12.3138 17.3704C12.2847 17.6327 12.0939 17.8485 11.8372 17.9096C10.6302 18.1968 9.37259 18.1968 8.16552 17.9096C7.90874 17.8485 7.71803 17.6327 7.68898 17.3704L7.54829 16.1C7.50697 15.7369 7.29578 15.415 6.97918 15.2325C6.66258 15.05 6.27816 15.0286 5.94399 15.1745L4.7718 15.6881C4.52901 15.7944 4.24552 15.7361 4.06448 15.5425C3.22101 14.6404 2.59315 13.5588 2.22816 12.379C2.14954 12.1249 2.24038 11.8489 2.45453 11.6911L3.49064 10.9278C3.78575 10.711 3.96005 10.3667 3.96005 10.0004C3.96005 9.63424 3.78575 9.28982 3.49025 9.07274L2.45479 8.31074C2.24032 8.15291 2.1494 7.87651 2.22829 7.62218C2.59393 6.44349 3.22211 5.36306 4.06559 4.46221C4.24682 4.26866 4.53044 4.21052 4.77319 4.31716L5.94018 4.8298C6.27596 4.97716 6.66199 4.95491 6.9803 4.76894C7.29724 4.58511 7.50823 4.26188 7.54896 3.89806L7.69069 2.62666C7.72029 2.36116 7.91538 2.14381 8.17616 2.08581C8.77393 1.95288 9.38376 1.88224 10.0107 1.87503ZM10.0003 7.49999C8.61951 7.49999 7.50024 8.61924 7.50024 9.99999C7.50024 11.3807 8.61951 12.5 10.0003 12.5C11.3809 12.5 12.5003 11.3807 12.5003 9.99999C12.5003 8.61924 11.3809 7.49999 10.0003 7.49999Z" fill="#214389"/>
</svg>
