<svg width="20" height="20" viewBox="0 0 20 20" fill="none" xmlns="http://www.w3.org/2000/svg">
<path d="M10.0003 3.62848V4.16666L11.4547 4.16667C11.7707 4.16667 12.0321 4.40127 12.0739 4.70593L12.0797 4.79064L12.0853 8.33334H10.8353L10.8307 5.41667L10.0003 5.41666L10.0007 9.17075L10.8353 9.17L10.8362 9.16667H12.087L12.0862 9.17H16.202L14.7667 7.73354C14.5448 7.51161 14.5247 7.16439 14.7062 6.91974L14.7668 6.84965C14.9887 6.6278 15.3359 6.60769 15.5806 6.78928L15.6507 6.8498L18.1478 9.34784C18.3695 9.56959 18.3898 9.91642 18.2087 10.161L18.1482 10.2312L15.6511 12.734C15.4073 12.9783 15.0116 12.9788 14.7672 12.735C14.5451 12.5134 14.5245 12.1662 14.7057 11.9213L14.7662 11.8512L16.1937 10.42L10.0007 10.4208L10.0003 14.1675L10.8452 14.1678L10.8395 11.25H12.0903L12.0963 14.7918C12.0968 15.1086 11.8616 15.3707 11.5562 15.4122L11.4713 15.4178L10.0003 15.4175V16.0417C10.0003 16.4303 9.64933 16.7248 9.26666 16.6572L2.18328 15.4061C1.88467 15.3533 1.66699 15.0938 1.66699 14.7906V4.79167C1.66699 4.48558 1.88867 4.22453 2.19072 4.17493L9.27408 3.01174C9.65458 2.94925 10.0003 3.24287 10.0003 3.62848ZM7.08545 9.58334C6.62423 9.58334 6.25033 9.95725 6.25033 10.4184C6.25033 10.8797 6.62423 11.2536 7.08545 11.2536C7.54668 11.2536 7.92058 10.8797 7.92058 10.4184C7.92058 9.95725 7.54668 9.58334 7.08545 9.58334Z" fill="#FF3B30"/>
</svg>
